<svg width="24" height="24" viewBox="0 0 24 24" fill="none" xmlns="http://www.w3.org/2000/svg" preserveAspectRatio="xMinYMid meet">
<path fill-rule="evenodd" clip-rule="evenodd" d="M4 3L20 3C21.105 3 22 3.895 22 5L22 15C22 16.105 21.105 17 20 17L12.447 17L7 20.382L7 17L4 17C2.895 17 2 16.105 2 15L2 5C2 3.895 2.895 3 4 3ZM4 4.5C3.724 4.5 3.5 4.724 3.5 5L3.5 15C3.5 15.276 3.724 15.5 4 15.5L20 15.5C20.276 15.5 20.5 15.276 20.5 15L20.5 5C20.5 4.724 20.276 4.5 20 4.5Z" fill="#212529"/>
<path d="M12 7.5L12.667 9.333L14.5 10L12.667 10.667L12 12.5L11.333 10.667L9.5 10L11.333 9.333Z" fill="#212529"/>
<path d="M20 0.3L20.318 1.182L21.2 1.5L20.318 1.818L20 2.7L19.682 1.818L18.8 1.5L19.682 1.182Z" fill="#212529"/>
<path d="M21.5 1.9L21.656 2.344L22.1 2.5L21.656 2.656L21.5 3.1L21.344 2.656L20.9 2.5L21.344 2.344Z" fill="#212529"/>
</svg>
